{
	"asset":
	{
		"version": "2.0",
		"generator": "Unreal Engine 5.2.1"
	},
	"scene": 0,
	"accessors": [
		{
			"bufferView": 0,
			"count": 61,
			"type": "SCALAR",
			"componentType": 5126,
			"min": [ 0 ],
			"max": [ 2 ]
		},
		{
			"bufferView": 1,
			"count": 61,
			"type": "VEC3",
			"componentType": 5126
		},
		{
			"bufferView": 2,
			"count": 61,
			"type": "VEC4",
			"componentType": 5126
		},
		{
			"bufferView": 3,
			"count": 61,
			"type": "VEC3",
			"componentType": 5126
		},
		{
			"bufferView": 4,
			"count": 144,
			"type": "SCALAR",
			"componentType": 5121
		},
		{
			"bufferView": 5,
			"count": 54,
			"type": "VEC3",
			"componentType": 5126,
			"min": [ -0.5, -0.5, -0.5 ],
			"max": [ 0.5, 0.5, 0.5 ]
		},
		{
			"bufferView": 6,
			"count": 54,
			"type": "VEC3",
			"componentType": 5126
		},
		{
			"bufferView": 7,
			"count": 54,
			"type": "VEC4",
			"componentType": 5126
		},
		{
			"bufferView": 8,
			"count": 54,
			"type": "VEC2",
			"componentType": 5126
		},
		{
			"bufferView": 9,
			"count": 54,
			"type": "VEC2",
			"componentType": 5126
		},
		{
			"bufferView": 10,
			"count": 6,
			"type": "SCALAR",
			"componentType": 5121
		},
		{
			"bufferView": 11,
			"count": 4,
			"type": "VEC3",
			"componentType": 5126,
			"min": [ -0.5, -8.04061311e-17, -0.5 ],
			"max": [ 0.5, 8.04061311e-17, 0.5 ]
		},
		{
			"bufferView": 12,
			"count": 4,
			"type": "VEC3",
			"componentType": 5126
		},
		{
			"bufferView": 13,
			"count": 4,
			"type": "VEC4",
			"componentType": 5126
		},
		{
			"bufferView": 14,
			"count": 4,
			"type": "VEC2",
			"componentType": 5126
		},
		{
			"bufferView": 15,
			"count": 4,
			"type": "VEC2",
			"componentType": 5126
		}
	],
	"animations": [
		{
			"name": "SampleLevelSequence_0",
			"channels": [
				{
					"sampler": 0,
					"target":
					{
						"node": 2,
						"path": "translation"
					}
				},
				{
					"sampler": 1,
					"target":
					{
						"node": 2,
						"path": "rotation"
					}
				},
				{
					"sampler": 2,
					"target":
					{
						"node": 2,
						"path": "scale"
					}
				}
			],
			"samplers": [
				{
					"input": 0,
					"output": 1
				},
				{
					"input": 0,
					"output": 2
				},
				{
					"input": 0,
					"output": 3
				}
			]
		}
	],
	"buffers": [
		{
			"uri": "sample-level.bin",
			"byteLength": 6084
		}
	],
	"bufferViews": [
		{
			"buffer": 0,
			"byteLength": 244
		},
		{
			"buffer": 0,
			"byteLength": 732,
			"byteOffset": 244
		},
		{
			"buffer": 0,
			"byteLength": 976,
			"byteOffset": 976
		},
		{
			"buffer": 0,
			"byteLength": 732,
			"byteOffset": 1952
		},
		{
			"buffer": 0,
			"byteLength": 144,
			"byteOffset": 2684,
			"target": 34963
		},
		{
			"buffer": 0,
			"byteLength": 648,
			"byteOffset": 2828,
			"target": 34962
		},
		{
			"buffer": 0,
			"byteLength": 648,
			"byteOffset": 3476,
			"target": 34962
		},
		{
			"buffer": 0,
			"byteLength": 864,
			"byteOffset": 4124,
			"target": 34962
		},
		{
			"buffer": 0,
			"byteLength": 432,
			"byteOffset": 4988,
			"target": 34962
		},
		{
			"buffer": 0,
			"byteLength": 432,
			"byteOffset": 5420,
			"target": 34962
		},
		{
			"buffer": 0,
			"byteLength": 6,
			"byteOffset": 5852,
			"target": 34963
		},
		{
			"buffer": 0,
			"byteLength": 48,
			"byteOffset": 5860,
			"target": 34962
		},
		{
			"buffer": 0,
			"byteLength": 48,
			"byteOffset": 5908,
			"target": 34962
		},
		{
			"buffer": 0,
			"byteLength": 64,
			"byteOffset": 5956,
			"target": 34962
		},
		{
			"buffer": 0,
			"byteLength": 32,
			"byteOffset": 6020,
			"target": 34962
		},
		{
			"buffer": 0,
			"byteLength": 32,
			"byteOffset": 6052,
			"target": 34962
		}
	],
	"cameras": [
		{
			"name": "CameraComponent",
			"type": "perspective",
			"perspective":
			{
				"aspectRatio": 1.77777779,
				"yfov": 0.377315938,
				"znear": 0.099999994
			}
		}
	],
	"materials": [
		{
			"name": "MI_Cube",
			"pbrMetallicRoughness":
			{
				"baseColorFactor": [ 1, 0, 0.0624359995, 1 ],
				"metallicFactor": 0
			}
		},
		{
			"name": "MI_Floor",
			"pbrMetallicRoughness":
			{
				"baseColorFactor": [ 1, 0.139064997, 0, 1 ],
				"metallicFactor": 0
			}
		}
	],
	"meshes": [
		{
			"name": "Cube",
			"primitives": [
				{
					"attributes":
					{
						"POSITION": 5,
						"NORMAL": 6,
						"TANGENT": 7,
						"TEXCOORD_0": 8,
						"TEXCOORD_1": 9
					},
					"indices": 4,
					"material": 0
				}
			]
		},
		{
			"name": "Plane",
			"primitives": [
				{
					"attributes":
					{
						"POSITION": 11,
						"NORMAL": 12,
						"TANGENT": 13,
						"TEXCOORD_0": 14,
						"TEXCOORD_1": 15
					},
					"indices": 10,
					"material": 1
				}
			]
		}
	],
	"nodes": [
		{
			"name": "DirectionalLight",
			"translation": [ 8.19999981, 0, 0 ],
			"rotation": [ 0.10112866, -0.238244191, -0.377417296, 0.889139414 ],
			"scale": [ 2.5, 2.5, 2.5 ],
			"children": [ 1 ]
		},
		{
			"name": "DirectionalLight",
			"rotation": [ -0, -0.707106829, 0, 0.707106769 ],
			"extensions":
			{
				"KHR_lights_punctual":
				{
					"light": 0
				}
			}
		},
		{
			"name": "Cube",
			"translation": [ 0, 0.5, 0 ],
			"mesh": 0
		},
		{
			"name": "Plane",
			"scale": [ 10, 10, 10 ],
			"mesh": 1
		},
		{
			"name": "CineCameraActor0",
			"translation": [ -9.19999981, 2, 0 ],
			"rotation": [ 0, -0, -0.0871557444, 0.99619472 ],
			"children": [ 5 ]
		},
		{
			"name": "CameraComponent",
			"children": [ 6 ]
		},
		{
			"name": "CameraComponent",
			"rotation": [ -0, -0.707106829, 0, 0.707106769 ],
			"camera": 0
		},
		{
			"name": "SampleLevelSequence"
		}
	],
	"scenes": [
		{
			"name": "SampleLevel",
			"nodes": [ 0, 2, 3, 4, 7 ]
		}
	],
	"extensions":
	{
		"KHR_lights_punctual":
		{
			"lights": [
				{
					"name": "DirectionalLight",
					"type": "directional",
					"intensity": 10
				}
			]
		}
	},
	"extensionsUsed": [
		"KHR_lights_punctual"
	]
}